<svg width="291" height="291" viewBox="0 0 291 291" fill="none" xmlns="http://www.w3.org/2000/svg">
<path d="M266.94 80.2951C256.54 73.5631 244.634 65.9814 221.85 65.9814C199.066 65.9814 187.196 73.5958 176.796 80.2951C167.536 86.2754 160.149 91.014 144.237 91.014C128.325 91.014 120.939 86.2754 111.678 80.2951C101.278 73.5631 89.6293 65.9814 66.6983 65.9814C43.7673 65.9814 32.8163 73.5958 22.6002 80.2951C15.8748 84.9257 8.19798 88.3446 0 90.3604L0 131.471C12.7438 129.568 24.733 124.811 34.8374 117.648C44.098 111.667 51.0802 106.929 67.029 106.929C82.9778 106.929 90.107 111.667 99.4043 117.648C109.804 124.38 121.453 131.961 144.274 131.961C167.095 131.961 178.818 124.347 189.181 117.648C198.441 111.635 205.791 106.929 221.703 106.929C237.615 106.929 245.222 111.667 254.519 117.648C263.817 123.628 271.938 129.707 290.312 131.471V90.3604C279.288 88.8571 274.143 84.9683 266.94 80.2951Z" fill="white"/>
<path d="M22.4165 40.6088C32.7795 32.9993 44.098 24.3504 67.029 24.3504C89.96 24.3504 101.425 32.9993 111.825 40.6088C121.086 47.4017 128.325 52.784 144.274 52.784C160.223 52.784 167.499 47.4017 176.76 40.6088C187.159 32.9622 198.809 24.3504 221.703 24.3504C244.597 24.3504 256.54 32.9993 266.94 40.6088C274.143 45.9169 279.288 50.3341 290.312 51.9674V0H0V51.9674C8.12784 49.6779 15.74 45.8208 22.4165 40.6088V40.6088Z" fill="white"/>
<path d="M176.723 166.619C167.462 172.83 160.113 177.751 144.201 177.751C128.289 177.751 120.939 172.83 111.678 166.619C101.278 159.627 89.6293 151.753 66.6983 151.753C43.7673 151.753 32.8163 159.661 22.6002 166.619C15.8748 171.428 8.19798 174.979 0 177.072L0 217.224C12.7438 215.247 24.733 210.307 34.8374 202.867C44.098 196.656 51.0802 191.735 67.029 191.735C82.9778 191.735 90.107 196.656 99.2206 202.867C109.62 209.859 121.27 217.733 144.09 217.733C166.911 217.733 178.634 209.825 188.997 202.867C198.441 196.656 205.791 191.735 221.703 191.735C237.615 191.735 245.222 196.656 254.519 202.867C263.817 209.078 271.938 215.391 290.312 217.224V177.072C279.288 175.511 274.143 171.472 266.94 166.619C256.54 159.627 244.634 151.753 221.85 151.753C199.066 151.753 187.086 159.661 176.723 166.619Z" fill="white"/>
<path d="M254.482 243.463C245.222 236.47 237.762 230.93 221.813 230.93C205.864 230.93 198.441 236.47 189.217 243.463C178.818 251.335 167.168 260.2 144.201 260.2C121.233 260.2 109.62 251.335 99.2206 243.463C89.96 236.47 82.6103 230.93 66.6615 230.93C50.7127 230.93 44.098 236.47 34.8374 243.463C24.7444 251.88 12.7544 257.483 0 259.742L0 290.312H290.312V259.742C271.938 257.602 263.339 250.15 254.482 243.463Z" fill="white"/>
</svg>
